{
  "accessors": [
    {
      "bufferView": 2,
      "componentType": 5126,
      "count": 109,
      "max": [
        0.21875,
        0.5,
        0.21875
      ],
      "min": [
        -0.21875,
        0.21875,
        -0.21875
      ],
      "type": "VEC3"
    },
    {
      "bufferView": 2,
      "byteOffset": 1308,
      "componentType": 5126,
      "count": 109,
      "max": [
        1.0,
        1.0,
        1.0
      ],
      "min": [
        -1.0,
        -1.0,
        -1.0
      ],
      "type": "VEC3"
    },
    {
      "bufferView": 1,
      "componentType": 5126,
      "count": 109,
      "max": [
        0.4921875,
        0.5078125
      ],
      "min": [
        0.0,
        0.0
      ],
      "type": "VEC2"
    },
    {
      "bufferView": 0,
      "componentType": 5125,
      "count": 192,
      "type": "SCALAR"
    },
    {
      "bufferView": 2,
      "byteOffset": 2616,
      "componentType": 5126,
      "count": 109,
      "max": [
        0.21875,
        0.5,
        0.21875
      ],
      "min": [
        -0.21875,
        0.21875,
        -0.21875
      ],
      "type": "VEC3"
    },
    {
      "bufferView": 2,
      "byteOffset": 3924,
      "componentType": 5126,
      "count": 109,
      "max": [
        1.0,
        1.0,
        1.0
      ],
      "min": [
        -1.0,
        -1.0,
        -1.0
      ],
      "type": "VEC3"
    },
    {
      "bufferView": 1,
      "byteOffset": 872,
      "componentType": 5126,
      "count": 109,
      "max": [
        0.4921875,
        0.5078125
      ],
      "min": [
        0.0,
        0.0
      ],
      "type": "VEC2"
    },
    {
      "bufferView": 0,
      "byteOffset": 768,
      "componentType": 5125,
      "count": 192,
      "type": "SCALAR"
    },
    {
      "bufferView": 2,
      "byteOffset": 5232,
      "componentType": 5126,
      "count": 109,
      "max": [
        0.21875,
        0.5,
        0.21875
      ],
      "min": [
        -0.21875,
        0.21875,
        -0.21875
      ],
      "type": "VEC3"
    },
    {
      "bufferView": 2,
      "byteOffset": 6540,
      "componentType": 5126,
      "count": 109,
      "max": [
        1.0,
        1.0,
        1.0
      ],
      "min": [
        -1.0,
        -1.0,
        -1.0
      ],
      "type": "VEC3"
    },
    {
      "bufferView": 1,
      "byteOffset": 1744,
      "componentType": 5126,
      "count": 109,
      "max": [
        0.4921875,
        0.5078125
      ],
      "min": [
        0.0,
        0.0
      ],
      "type": "VEC2"
    },
    {
      "bufferView": 0,
      "byteOffset": 1536,
      "componentType": 5125,
      "count": 192,
      "type": "SCALAR"
    },
    {
      "bufferView": 2,
      "byteOffset": 7848,
      "componentType": 5126,
      "count": 109,
      "max": [
        0.21875,
        0.5,
        0.21875
      ],
      "min": [
        -0.21875,
        0.21875,
        -0.21875
      ],
      "type": "VEC3"
    },
    {
      "bufferView": 2,
      "byteOffset": 9156,
      "componentType": 5126,
      "count": 109,
      "max": [
        1.0,
        1.0,
        1.0
      ],
      "min": [
        -1.0,
        -1.0,
        -1.0
      ],
      "type": "VEC3"
    },
    {
      "bufferView": 1,
      "byteOffset": 2616,
      "componentType": 5126,
      "count": 109,
      "max": [
        0.4921875,
        0.5078125
      ],
      "min": [
        0.0,
        0.0
      ],
      "type": "VEC2"
    },
    {
      "bufferView": 0,
      "byteOffset": 2304,
      "componentType": 5125,
      "count": 192,
      "type": "SCALAR"
    },
    {
      "bufferView": 2,
      "byteOffset": 10464,
      "componentType": 5126,
      "count": 57,
      "max": [
        -0.0625,
        0.5625,
        0.25
      ],
      "min": [
        -0.3125,
        0.4375,
        0.1875
      ],
      "type": "VEC3"
    },
    {
      "bufferView": 2,
      "byteOffset": 11148,
      "componentType": 5126,
      "count": 57,
      "max": [
        1.0,
        1.0,
        1.0
      ],
      "min": [
        -1.0,
        -1.0,
        -1.0
      ],
      "type": "VEC3"
    },
    {
      "bufferView": 1,
      "byteOffset": 3488,
      "componentType": 5126,
      "count": 57,
      "max": [
        0.458984375,
        0.2578125
      ],
      "min": [
        0.171875,
        0.0
      ],
      "type": "VEC2"
    },
    {
      "bufferView": 0,
      "byteOffset": 3072,
      "componentType": 5125,
      "count": 120,
      "type": "SCALAR"
    },
    {
      "bufferView": 2,
      "byteOffset": 11832,
      "componentType": 5126,
      "count": 240,
      "max": [
        0.5,
        1.0,
        1.0625
      ],
      "min": [
        -0.5,
        0.0,
        -1.15625
      ],
      "type": "VEC3"
    },
    {
      "bufferView": 2,
      "byteOffset": 14712,
      "componentType": 5126,
      "count": 240,
      "max": [
        1.0,
        1.0,
        1.0
      ],
      "min": [
        -1.0,
        -1.0,
        -1.0
      ],
      "type": "VEC3"
    },
    {
      "bufferView": 1,
      "byteOffset": 3944,
      "componentType": 5126,
      "count": 240,
      "max": [
        0.53125,
        0.484375
      ],
      "min": [
        0.03125,
        0.0
      ],
      "type": "VEC2"
    },
    {
      "bufferView": 0,
      "byteOffset": 3552,
      "componentType": 5125,
      "count": 492,
      "type": "SCALAR"
    },
    {
      "bufferView": 2,
      "byteOffset": 17592,
      "componentType": 5126,
      "count": 57,
      "max": [
        0.3125,
        0.5625,
        0.25
      ],
      "min": [
        0.0625,
        0.4375,
        0.1875
      ],
      "type": "VEC3"
    },
    {
      "bufferView": 2,
      "byteOffset": 18276,
      "componentType": 5126,
      "count": 57,
      "max": [
        1.0,
        1.0,
        1.0
      ],
      "min": [
        -1.0,
        -1.0,
        -1.0
      ],
      "type": "VEC3"
    },
    {
      "bufferView": 1,
      "byteOffset": 5864,
      "componentType": 5126,
      "count": 57,
      "max": [
        0.458984375,
        0.2578125
      ],
      "min": [
        0.171875,
        0.0
      ],
      "type": "VEC2"
    },
    {
      "bufferView": 0,
      "byteOffset": 5520,
      "componentType": 5125,
      "count": 120,
      "type": "SCALAR"
    },
    {
      "bufferView": 3,
      "componentType": 5126,
      "count": 9,
      "max": [
        2.0
      ],
      "min": [
        0.0
      ],
      "type": "SCALAR"
    },
    {
      "bufferView": 5,
      "componentType": 5126,
      "count": 9,
      "max": [
        0.0,
        0.0,
        0.017452405765652657,
        1.0
      ],
      "min": [
        0.0,
        0.0,
        -0.017452405765652657,
        0.9998477101325989
      ],
      "type": "VEC4"
    },
    {
      "bufferView": 3,
      "byteOffset": 36,
      "componentType": 5126,
      "count": 36,
      "max": [
        2.0
      ],
      "min": [
        0.0
      ],
      "type": "SCALAR"
    },
    {
      "bufferView": 4,
      "componentType": 5126,
      "count": 36,
      "max": [
        0.0,
        0.5190295577049255,
        0.34562140703201294
      ],
      "min": [
        0.0,
        0.4877795875072479,
        0.34562140703201294
      ],
      "type": "VEC3"
    },
    {
      "bufferView": 3,
      "byteOffset": 180,
      "componentType": 5126,
      "count": 5,
      "max": [
        2.0
      ],
      "min": [
        0.0
      ],
      "type": "SCALAR"
    },
    {
      "bufferView": 5,
      "byteOffset": 144,
      "componentType": 5126,
      "count": 5,
      "max": [
        1.0,
        0.0,
        0.0,
        1.0
      ],
      "min": [
        0.0,
        0.0,
        0.0,
        -1.0
      ],
      "type": "VEC4"
    },
    {
      "bufferView": 3,
      "byteOffset": 200,
      "componentType": 5126,
      "count": 5,
      "max": [
        2.0
      ],
      "min": [
        0.0
      ],
      "type": "SCALAR"
    },
    {
      "bufferView": 5,
      "byteOffset": 224,
      "componentType": 5126,
      "count": 5,
      "max": [
        1.0,
        0.0,
        0.0,
        1.0
      ],
      "min": [
        0.0,
        0.0,
        0.0,
        -0.7071067690849304
      ],
      "type": "VEC4"
    }
  ],
  "animations": [
    {
      "channels": [
        {
          "sampler": 0,
          "target": {
            "node": 16,
            "path": "rotation"
          }
        },
        {
          "sampler": 1,
          "target": {
            "node": 16,
            "path": "translation"
          }
        },
        {
          "sampler": 2,
          "target": {
            "node": 6,
            "path": "rotation"
          }
        },
        {
          "sampler": 3,
          "target": {
            "node": 11,
            "path": "rotation"
          }
        }
      ],
      "name": "animation",
      "samplers": [
        {
          "input": 28,
          "interpolation": "LINEAR",
          "output": 29
        },
        {
          "input": 30,
          "interpolation": "LINEAR",
          "output": 31
        },
        {
          "input": 32,
          "interpolation": "LINEAR",
          "output": 33
        },
        {
          "input": 34,
          "interpolation": "LINEAR",
          "output": 35
        }
      ]
    }
  ],
  "asset": {
    "extras": {
      "author": "Devvux (https://sketchfab.com/Devvux)",
      "license": "CC-BY-4.0 (http://creativecommons.org/licenses/by/4.0/)",
      "source": "https://sketchfab.com/3d-models/low-poly-car-9bf2773a3e4d4818a06489a75fe500ed",
      "title": "Low-poly Car"
    },
    "generator": "Sketchfab-16.28.0",
    "version": "2.0"
  },
  "bufferViews": [
    {
      "buffer": 0,
      "byteLength": 6000,
      "name": "floatBufferViews",
      "target": 34963
    },
    {
      "buffer": 0,
      "byteLength": 6320,
      "byteOffset": 6000,
      "byteStride": 8,
      "name": "floatBufferViews",
      "target": 34962
    },
    {
      "buffer": 0,
      "byteLength": 18960,
      "byteOffset": 12320,
      "byteStride": 12,
      "name": "floatBufferViews",
      "target": 34962
    },
    {
      "buffer": 0,
      "byteLength": 220,
      "byteOffset": 31280,
      "name": "floatBufferViews"
    },
    {
      "buffer": 0,
      "byteLength": 432,
      "byteOffset": 31500,
      "byteStride": 12,
      "name": "floatBufferViews"
    },
    {
      "buffer": 0,
      "byteLength": 304,
      "byteOffset": 31932,
      "byteStride": 16,
      "name": "floatBufferViews"
    }
  ],
  "buffers": [
    {
      "byteLength": 32236,
      "uri": "scene.bin"
    }
  ],
  "images": [
    {
      "uri": "textures/material_0_baseColor.png"
    }
  ],
  "materials": [
    {
      "alphaCutoff": 0.05,
      "alphaMode": "MASK",
      "doubleSided": true,
      "name": "material_0",
      "pbrMetallicRoughness": {
        "baseColorTexture": {
          "index": 0
        },
        "metallicFactor": 0.0
      }
    }
  ],
  "meshes": [
    {
      "name": "Object_0",
      "primitives": [
        {
          "attributes": {
            "NORMAL": 1,
            "POSITION": 0,
            "TEXCOORD_0": 2
          },
          "indices": 3,
          "material": 0,
          "mode": 4
        }
      ]
    },
    {
      "name": "Object_1",
      "primitives": [
        {
          "attributes": {
            "NORMAL": 5,
            "POSITION": 4,
            "TEXCOORD_0": 6
          },
          "indices": 7,
          "material": 0,
          "mode": 4
        }
      ]
    },
    {
      "name": "Object_2",
      "primitives": [
        {
          "attributes": {
            "NORMAL": 9,
            "POSITION": 8,
            "TEXCOORD_0": 10
          },
          "indices": 11,
          "material": 0,
          "mode": 4
        }
      ]
    },
    {
      "name": "Object_3",
      "primitives": [
        {
          "attributes": {
            "NORMAL": 13,
            "POSITION": 12,
            "TEXCOORD_0": 14
          },
          "indices": 15,
          "material": 0,
          "mode": 4
        }
      ]
    },
    {
      "name": "Object_4",
      "primitives": [
        {
          "attributes": {
            "NORMAL": 17,
            "POSITION": 16,
            "TEXCOORD_0": 18
          },
          "indices": 19,
          "material": 0,
          "mode": 4
        }
      ]
    },
    {
      "name": "Object_5",
      "primitives": [
        {
          "attributes": {
            "NORMAL": 21,
            "POSITION": 20,
            "TEXCOORD_0": 22
          },
          "indices": 23,
          "material": 0,
          "mode": 4
        }
      ]
    },
    {
      "name": "Object_6",
      "primitives": [
        {
          "attributes": {
            "NORMAL": 25,
            "POSITION": 24,
            "TEXCOORD_0": 26
          },
          "indices": 27,
          "material": 0,
          "mode": 4
        }
      ]
    }
  ],
  "nodes": [
    {
      "children": [
        1
      ],
      "matrix": [
        1.0,
        0.0,
        0.0,
        0.0,
        0.0,
        2.220446049250313e-16,
        -1.0,
        0.0,
        0.0,
        1.0,
        2.220446049250313e-16,
        0.0,
        0.0,
        0.0,
        0.0,
        1.0
      ],
      "name": "Sketchfab_model"
    },
    {
      "children": [
        2
      ],
      "name": "root"
    },
    {
      "children": [
        3
      ],
      "matrix": [
        1.0,
        0.0,
        0.0,
        0.0,
        0.0,
        2.220446049250313e-16,
        1.0,
        0.0,
        0.0,
        -1.0,
        2.220446049250313e-16,
        0.0,
        0.0,
        0.0,
        0.0,
        1.0
      ],
      "name": "GLTF_SceneRootNode"
    },
    {
      "children": [
        4
      ],
      "name": "_13"
    },
    {
      "children": [
        5,
        16
      ],
      "matrix": [
        -1.0,
        0.0,
        1.2246468525851679e-16,
        0.0,
        -0.0,
        1.0,
        0.0,
        0.0,
        -1.2246468525851679e-16,
        -0.0,
        -1.0,
        0.0,
        0.0,
        0.0,
        0.0,
        1.0
      ],
      "name": "bone3_12"
    },
    {
      "children": [
        6,
        11
      ],
      "matrix": [
        1.0,
        0.0,
        0.0,
        0.0,
        0.0,
        1.0,
        0.0,
        0.0,
        0.0,
        0.0,
        1.0,
        0.0,
        -0.0625,
        0.0,
        0.46875,
        1.0
      ],
      "name": "bone2_7"
    },
    {
      "children": [
        7,
        9
      ],
      "name": "bone4_3",
      "translation": [
        0.125,
        0.0,
        0.0
      ]
    },
    {
      "children": [
        8
      ],
      "matrix": [
        0.0,
        1.0,
        0.0,
        0.0,
        -1.0,
        0.0,
        0.0,
        0.0,
        0.0,
        0.0,
        1.0,
        0.0,
        -0.125,
        0.0,
        0.0,
        1.0
      ],
      "name": "cylinder_1"
    },
    {
      "mesh": 0,
      "name": "Object_8"
    },
    {
      "children": [
        10
      ],
      "matrix": [
        0.0,
        -1.0,
        -0.0,
        0.0,
        1.0,
        0.0,
        0.0,
        0.0,
        0.0,
        -0.0,
        1.0,
        0.0,
        0.0,
        0.0,
        0.0,
        1.0
      ],
      "name": "cylinder_2"
    },
    {
      "mesh": 1,
      "name": "Object_10"
    },
    {
      "children": [
        12,
        14
      ],
      "name": "bone5_6",
      "translation": [
        0.125,
        0.0,
        -1.0625
      ]
    },
    {
      "children": [
        13
      ],
      "matrix": [
        0.0,
        1.0,
        0.0,
        0.0,
        -1.0,
        0.0,
        0.0,
        0.0,
        0.0,
        0.0,
        1.0,
        0.0,
        -0.125,
        0.0,
        0.0,
        1.0
      ],
      "name": "cylinder_4"
    },
    {
      "mesh": 2,
      "name": "Object_13"
    },
    {
      "children": [
        15
      ],
      "matrix": [
        0.0,
        -1.0,
        -0.0,
        0.0,
        1.0,
        0.0,
        0.0,
        0.0,
        0.0,
        -0.0,
        1.0,
        0.0,
        0.0,
        0.0,
        0.0,
        1.0
      ],
      "name": "cylinder_5"
    },
    {
      "mesh": 3,
      "name": "Object_15"
    },
    {
      "children": [
        17,
        19,
        21
      ],
      "name": "bone_11",
      "translation": [
        0.0,
        0.4877795875072479,
        0.34562140703201294
      ]
    },
    {
      "children": [
        18
      ],
      "matrix": [
        1.0,
        0.0,
        0.0,
        0.0,
        0.0,
        1.0,
        0.0,
        0.0,
        0.0,
        0.0,
        1.0,
        0.0,
        0.8125,
        -0.4877795875072479,
        -0.001871392480097711,
        1.0
      ],
      "name": "cuboid_8"
    },
    {
      "mesh": 4,
      "name": "Object_18"
    },
    {
      "children": [
        20
      ],
      "matrix": [
        1.0,
        0.0,
        0.0,
        0.0,
        0.0,
        1.0,
        0.0,
        0.0,
        0.0,
        0.0,
        1.0,
        0.0,
        0.0,
        -0.4877795875072479,
        -0.34562140703201294,
        1.0
      ],
      "name": "cuboid_9"
    },
    {
      "mesh": 5,
      "name": "Object_20"
    },
    {
      "children": [
        22
      ],
      "matrix": [
        1.0,
        0.0,
        0.0,
        0.0,
        0.0,
        1.0,
        0.0,
        0.0,
        0.0,
        0.0,
        1.0,
        0.0,
        -0.8125,
        -0.4877795875072479,
        -0.001871392480097711,
        1.0
      ],
      "name": "cuboid_10"
    },
    {
      "mesh": 6,
      "name": "Object_22"
    }
  ],
  "samplers": [
    {
      "magFilter": 9728,
      "minFilter": 9728,
      "wrapS": 33071,
      "wrapT": 33071
    }
  ],
  "scene": 0,
  "scenes": [
    {
      "name": "Sketchfab_Scene",
      "nodes": [
        0
      ]
    }
  ],
  "textures": [
    {
      "sampler": 0,
      "source": 0
    }
  ]
}
